<?xml version="1.0" encoding="utf-8"?>
<!-- Generator: Adobe Illustrator 15.0.0, SVG Export Plug-In . SVG Version: 6.00 Build 0)  -->
<!DOCTYPE svg PUBLIC "-//W3C//DTD SVG 1.1//EN" "http://www.w3.org/Graphics/SVG/1.1/DTD/svg11.dtd">
<svg version="1.1" id="图层_1" xmlns="http://www.w3.org/2000/svg" xmlns:xlink="http://www.w3.org/1999/xlink" x="0px" y="0px"
	 width="24px" height="24px" viewBox="0 0 24 24" enable-background="new 0 0 24 24" xml:space="preserve">
<path fill="#52B1B4" d="M11.983,9.146l-3.378-7.45L7.784,3.429L1.412,16.503c-0.641,1.32-0.84,1.707-1.064,2.184l-0.274,0.563
	c-0.052,0.106-0.068,0.219-0.066,0.329C0.007,19.589,0,19.607,0,19.616c0,0.133,0.035,0.23,0.101,0.294
	c0.07,0.13,0.168,0.246,0.31,0.314c0.1,0.049,0.209,0.073,0.313,0.075c0.273,0.001,0.535-0.149,0.663-0.411l4.334-8.866l2.517,5.812
	C8.042,17.238,11.983,9.146,11.983,9.146z"/>
<path fill="#378585" d="M16.699,20.261H24L15.583,1.696l-0.821,1.732l-2.788,5.718l-3.746,7.688
	c-0.196,0.404-0.369,0.762-0.522,1.079v0.001l0,0c-0.275,0.57-0.249,0.492-0.38,0.772L7.05,19.249
	c-0.052,0.106-0.067,0.219-0.065,0.329c-0.001,0.011-0.008,0.029-0.008,0.038c0,0.133,0.034,0.23,0.1,0.294
	c0.07,0.13,0.168,0.246,0.311,0.314c0.101,0.049,0.208,0.073,0.313,0.075c0.274,0.001,0.537-0.149,0.663-0.411l0.705-1.414h6.858
	L16.699,20.261z M9.955,16.649l2.741-5.627l2.438,5.627H9.955z"/>
</svg>
