<?xml version="1.0" encoding="utf-8"?>
<!-- Generator: Adobe Illustrator 15.0.0, SVG Export Plug-In . SVG Version: 6.00 Build 0)  -->
<!DOCTYPE svg PUBLIC "-//W3C//DTD SVG 1.1//EN" "http://www.w3.org/Graphics/SVG/1.1/DTD/svg11.dtd">
<svg version="1.1" id="图层_1" xmlns="http://www.w3.org/2000/svg" xmlns:xlink="http://www.w3.org/1999/xlink" x="0px" y="0px"
	 width="24px" height="24px" viewBox="0 0 24 24" enable-background="new 0 0 24 24" xml:space="preserve">
<g>
	<g>
		<path fill="#007BCC" d="M1.671,21.029c-0.454,0-0.786-0.1-1.015-0.311c-0.234-0.211-0.353-0.488-0.353-0.826
			c0-0.262,0.071-0.479,0.21-0.65c0.141-0.17,0.318-0.26,0.529-0.26c0.114,0,0.263,0.021,0.455,0.07
			c0.448,0.119,0.75,0.182,0.895,0.182c0.483,0,1.03-0.328,1.627-0.979c1.01-1.102,1.476-1.875,3.406-5.315
			c2.05-3.657,3.766-6.431,5.099-8.249l0.156-0.213l-0.24,0.028c-1.587,0.174-2.601,0.34-3.013,0.501
			C8.808,5.239,8.338,5.581,8.03,6.032C7.727,6.478,7.573,6.938,7.573,7.396c0,0.145,0.048,0.359,0.142,0.638
			C7.827,8.378,7.882,8.625,7.882,8.79c0,0.227-0.076,0.429-0.224,0.6c-0.147,0.173-0.33,0.26-0.539,0.26
			c-0.289,0-0.523-0.128-0.699-0.382c-0.17-0.244-0.256-0.612-0.256-1.088c0-0.651,0.148-1.294,0.44-1.907
			C6.899,5.66,7.324,5.138,7.868,4.729C8.409,4.323,9.093,4.004,9.902,3.79c0.421-0.116,1.138-0.218,2.188-0.309
			c0.876-0.084,1.455-0.17,1.674-0.246c0.342-0.107,0.678-0.328,0.995-0.652l0.233-0.24l-0.074,0.353
			c-0.227,1.074-0.392,2.029-0.49,2.844l-0.895,7.676l-0.506,5.404l0.084,0.023c0.488,0.131,0.936,0.197,1.332,0.197
			c0.021,0,0.061,0.049,0.095,0.148c0.097,0.289,0.078,0.705,0.022,0.766c-0.281-0.008-0.644-0.033-1.066-0.088
			c-0.71-0.086-1.165-0.131-1.352-0.131c-0.313,0-0.804,0.057-1.462,0.17l-0.168,0.031l0.063-0.186
			c0.234-0.68,0.433-1.408,0.591-2.166c0.106-0.494,0.22-1.342,0.339-2.521l0.013-0.125h-0.301c-0.865,0-2.076,0.02-3.631,0.063
			c-2.002,3.449-2.361,3.99-3.272,4.879C3.396,20.574,2.506,21.029,1.671,21.029z M12.354,6.687
			c-0.64,0.994-1.054,1.652-1.236,1.958l-2.841,4.892l0.178,0.004c0.599,0.02,1.384,0.025,2.351,0.025
			c0.24,0,0.492-0.006,0.757-0.025l0.082-0.008l0.009-0.092c0.29-2.814,0.583-5.053,0.875-6.663L12.354,6.687z"/>
	</g>
	<g>
		<path fill="#283F68" d="M15.542,19.361l0.115-0.045c0.32-0.115,0.551-0.236,0.68-0.355c0.123-0.109,0.213-0.254,0.26-0.424
			c0.054-0.18,0.08-0.43,0.08-0.742v-7.001c0-0.388-0.025-0.558-0.045-0.631c-0.025-0.095-0.066-0.167-0.123-0.21
			c-0.033-0.031-0.133-0.09-0.414-0.16l-0.63-0.024V9.286h3.75V9.77l-0.632,0.023c-0.158,0.04-0.271,0.076-0.336,0.111
			c-0.059,0.032-0.104,0.07-0.139,0.116c-0.021,0.031-0.055,0.097-0.075,0.224c-0.021,0.115-0.03,0.3-0.03,0.549v6.576
			c0,0.51-0.063,0.932-0.189,1.254c-0.129,0.33-0.346,0.615-0.648,0.84c-0.297,0.223-0.714,0.412-1.24,0.568l-0.109,0.033
			L15.542,19.361z"/>
	</g>
	<g>
		<path fill="#283F68" d="M21.31,19.195c-0.453,0-0.98-0.074-1.564-0.223l-0.086-0.02v-1.314h0.629l0.021,0.084
			c0.053,0.227,0.125,0.404,0.211,0.531c0.086,0.123,0.193,0.211,0.326,0.27c0.137,0.059,0.32,0.09,0.543,0.09
			c0.303,0,0.527-0.074,0.683-0.221c0.153-0.141,0.231-0.359,0.231-0.645c0-0.186-0.032-0.342-0.098-0.463
			c-0.066-0.125-0.176-0.246-0.329-0.357c-0.162-0.119-0.411-0.256-0.745-0.416c-0.336-0.162-0.607-0.32-0.807-0.479
			c-0.203-0.16-0.359-0.338-0.46-0.527c-0.101-0.191-0.155-0.404-0.155-0.633c0-0.326,0.082-0.613,0.242-0.854
			c0.16-0.244,0.396-0.434,0.703-0.566c0.299-0.127,0.648-0.191,1.033-0.191c0.219,0,0.433,0.012,0.641,0.033
			c0.209,0.021,0.474,0.072,0.787,0.148l0.086,0.021v1.305h-0.623l-0.021-0.084c-0.063-0.225-0.14-0.4-0.229-0.523
			c-0.086-0.115-0.188-0.195-0.299-0.242c-0.119-0.049-0.278-0.07-0.475-0.07c-0.166,0-0.316,0.027-0.445,0.086
			c-0.127,0.059-0.225,0.143-0.297,0.254c-0.074,0.115-0.111,0.252-0.111,0.416c0,0.174,0.032,0.318,0.096,0.438
			c0.064,0.119,0.166,0.23,0.306,0.336c0.147,0.109,0.368,0.234,0.657,0.373c0.37,0.174,0.66,0.344,0.863,0.496
			c0.211,0.158,0.377,0.342,0.496,0.547c0.121,0.209,0.184,0.453,0.184,0.727c0,0.301-0.052,0.563-0.15,0.771
			c-0.1,0.215-0.243,0.391-0.423,0.527c-0.177,0.133-0.392,0.229-0.638,0.289C21.857,19.166,21.593,19.195,21.31,19.195z"/>
	</g>
</g>
</svg>
