<?xml version="1.0" encoding="utf-8"?>
<!-- Generator: Adobe Illustrator 15.0.0, SVG Export Plug-In . SVG Version: 6.00 Build 0)  -->
<!DOCTYPE svg PUBLIC "-//W3C//DTD SVG 1.1//EN" "http://www.w3.org/Graphics/SVG/1.1/DTD/svg11.dtd">
<svg version="1.1" id="图层_1" xmlns="http://www.w3.org/2000/svg" xmlns:xlink="http://www.w3.org/1999/xlink" x="0px" y="0px"
	 width="24px" height="24px" viewBox="0 0 24 24" enable-background="new 0 0 24 24" xml:space="preserve">
<g>
	<g>
		<rect x="6.819" y="0.847" fill="#FFFFFF" width="14.624" height="18.299"/>
		<path fill="#999999" d="M20.943,1.347v17.299H7.319V1.347H20.943 M21.943,0.347H6.319v19.299h15.624V0.347L21.943,0.347z"/>
	</g>
	<g>
		<rect x="3.063" y="4.547" fill="#FFFFFF" width="14.625" height="18.3"/>
		<path fill="#777778" d="M17.188,5.047v17.3H3.563v-17.3H17.188 M18.188,4.047H2.563v19.3h15.625V4.047L18.188,4.047z"/>
	</g>
	<g>
		<path fill="#DF7776" d="M8.734,19.621c-0.418,0-0.737-0.105-0.947-0.311c-0.206-0.199-0.31-0.424-0.31-0.664
			c0-0.746,0.738-2.658,2.255-5.848c0.09-0.179,0.104-0.263,0.104-0.298c0.001-0.009-0.033-0.034-0.165-0.034
			c-0.167,0-0.671,0.143-2.154,1.092l-0.101,0.064l-1.041-0.516l0.241-0.168c1.824-1.273,3.473-1.919,4.902-1.919
			c0.4,0,0.679,0.044,0.853,0.13c0.206,0.104,0.314,0.276,0.314,0.497c0,0.167-0.102,0.597-0.986,2.4
			c-1.286,2.805-1.556,3.713-1.556,3.979c0,0.131,0.037,0.131,0.104,0.131c0.248,0,0.86-0.197,2.369-1.131l0.117-0.074l0.882,0.598
			l-0.232,0.143c-1.295,0.791-2.284,1.314-2.94,1.559C9.776,19.496,9.201,19.621,8.734,19.621z"/>
		<ellipse fill="#CD4240" cx="13.015" cy="8.579" rx="1.36" ry="1.313"/>
	</g>
</g>
</svg>
