<?xml version="1.0" encoding="utf-8"?>
<!-- Generator: Adobe Illustrator 15.0.0, SVG Export Plug-In . SVG Version: 6.00 Build 0)  -->
<!DOCTYPE svg PUBLIC "-//W3C//DTD SVG 1.1//EN" "http://www.w3.org/Graphics/SVG/1.1/DTD/svg11.dtd">
<svg version="1.1" id="图层_1" xmlns="http://www.w3.org/2000/svg" xmlns:xlink="http://www.w3.org/1999/xlink" x="0px" y="0px"
	 width="24px" height="24px" viewBox="0 0 24 24" enable-background="new 0 0 24 24" xml:space="preserve">
<g>
	<path fill="#8E9D94" d="M11.964,1.505c2.8,0,5.429,1.087,7.402,3.061s3.062,4.603,3.062,7.402c0,2.801-1.087,5.43-3.062,7.402
		c-1.974,1.975-4.603,3.063-7.402,3.063c-2.8,0-5.429-1.088-7.403-3.063S1.5,14.768,1.5,11.969c0-2.8,1.087-5.429,3.062-7.402
		S9.164,1.505,11.964,1.505 M11.963,19.816c2.099,0,4.07-0.816,5.551-2.297s2.296-3.451,2.296-5.55s-0.815-4.07-2.296-5.551
		c-1.48-1.481-3.452-2.296-5.551-2.296c-2.099,0-4.07,0.815-5.551,2.296c-3.06,3.061-3.06,8.041,0,11.101
		C7.893,19,9.864,19.816,11.963,19.816 M11.964,0.505c-2.937,0-5.874,1.118-8.11,3.354c-4.473,4.471-4.473,11.748,0,16.219
		c2.236,2.236,5.173,3.355,8.11,3.355s5.874-1.119,8.109-3.355c4.473-4.471,4.472-11.748,0-16.219
		C17.837,1.624,14.9,0.505,11.964,0.505L11.964,0.505z M11.963,18.816c-1.754,0-3.508-0.668-4.844-2.004
		c-2.67-2.67-2.67-7.016,0-9.687c1.335-1.335,3.09-2.003,4.844-2.003s3.509,0.667,4.844,2.003c2.671,2.671,2.671,7.017,0,9.687
		C15.472,18.148,13.717,18.816,11.963,18.816L11.963,18.816z"/>
</g>
<g>
	<path fill="#A4BA2B" d="M11.948,23.439c-2.463,0-4.809-0.77-6.784-2.223l-0.332-3.605l3.658,0.334
		c1.044,0.604,2.236,0.924,3.451,0.924c1.834-0.002,3.557-0.713,4.85-2.006c2.68-2.68,2.68-7.041,0-9.722
		c-1.295-1.294-3.019-2.007-4.853-2.007c-1.692,0-3.304,0.612-4.563,1.728l-0.638-2.56L4.081,3.68
		c2.133-2.014,4.914-3.12,7.854-3.12c3.054,0,5.926,1.19,8.086,3.35c2.163,2.162,3.354,5.036,3.354,8.093
		c0,3.058-1.19,5.931-3.353,8.091C17.865,22.252,14.998,23.439,11.948,23.439L11.948,23.439z"/>
	<path fill="#8E9D94" d="M11.935,0.685c3.021,0,5.862,1.177,7.999,3.313c2.139,2.138,3.316,4.981,3.316,8.005
		c0,3.022-1.178,5.866-3.316,8.003c-2.133,2.135-4.969,3.309-7.985,3.309c-2.405,0-4.696-0.74-6.635-2.145l0.009-0.039l-0.044-0.018
		L4.97,17.75l3.481,0.316c1.058,0.607,2.262,0.928,3.49,0.928c1.867,0,3.621-0.727,4.938-2.043c2.729-2.729,2.729-7.168,0-9.898
		c-1.318-1.318-3.072-2.043-4.941-2.043c-1.654,0-3.233,0.574-4.49,1.625L6.877,4.346L6.84,4.198L6.691,4.164L4.338,3.612
		C6.425,1.721,9.104,0.685,11.935,0.685 M11.935,0.435c-2.928,0-5.856,1.105-8.106,3.314l2.806,0.658l0.671,2.689
		c1.298-1.224,2.966-1.836,4.633-1.836c1.725,0,3.45,0.656,4.764,1.97c2.631,2.632,2.631,6.915,0,9.545
		c-1.313,1.313-3.037,1.969-4.761,1.969c-1.189,0-2.378-0.313-3.434-0.934L8.5,17.82l-3.806-0.346l0.348,3.801l-0.004,0.004
		c0.001,0.002,0.003,0.002,0.005,0.004l0.001,0.014l0.007-0.008c2.042,1.516,4.47,2.275,6.896,2.275
		c2.954,0,5.907-1.125,8.162-3.381c4.52-4.518,4.52-11.843,0-16.362C17.853,1.563,14.894,0.435,11.935,0.435L11.935,0.435z"/>
</g>
</svg>
