<?xml version="1.0" encoding="utf-8"?>
<!-- Generator: Adobe Illustrator 15.0.0, SVG Export Plug-In . SVG Version: 6.00 Build 0)  -->
<!DOCTYPE svg PUBLIC "-//W3C//DTD SVG 1.1//EN" "http://www.w3.org/Graphics/SVG/1.1/DTD/svg11.dtd">
<svg version="1.1" id="图层_1" xmlns="http://www.w3.org/2000/svg" xmlns:xlink="http://www.w3.org/1999/xlink" x="0px" y="0px"
	 width="24px" height="24px" viewBox="0 0 24 24" enable-background="new 0 0 24 24" xml:space="preserve">
<path fill="#7A66AB" d="M12.878,2.069c-2.888,0-5.047,0.48-6.478,1.443C4.97,4.475,4.132,6.089,3.993,8.056
	C4.19,8.594,4.821,8.622,5.36,8.316C5.9,8.06,6.112,7.556,6.032,7.203C5.989,7.046,5.951,6.885,5.951,6.885
	c0-1.199,0.429-2.17,1.288-2.912c0.858-0.744,1.978-1.117,3.357-1.117L9.388,8.968H7.131l-0.898,1.795h2.796L8.456,13.63
	c-0.492,2.471-1.008,4.215-1.661,5.164c-0.479,0.697-1.28,1.449-2.069,1.461c-0.867,0.012-1.592-0.079-2.171-1.046
	c-0.026-0.067-0.065-0.126-0.104-0.187c-0.022-0.043-0.077-0.116-0.077-0.116c-0.196-0.235-0.479-0.395-0.809-0.395
	c-0.588,0-1.064,0.477-1.064,1.064c0,0.337,0.185,0.536,0.412,0.819c0.35,0.436,1.461,0.857,2.47,0.857
	c1.872,0,3.464-0.479,4.597-2.109c1.169-1.685,2.217-3.598,2.708-6.09l0.454-2.291h1.235l0.898-1.795h-1.776l1.219-6.151h0.434
	c2.754,0,8.926,0.438,8.926,1.312c0,0.263-0.043,0.53-0.131,0.798h0.646L23.5,2.069H12.878z"/>
<g>
	<path fill="#6C2754" d="M13.604,20.148l0.143-0.054c0.403-0.152,0.689-0.307,0.852-0.457c0.156-0.142,0.266-0.324,0.328-0.541
		c0.064-0.231,0.098-0.555,0.098-0.953V9.177c0-0.495-0.029-0.711-0.056-0.806c-0.032-0.121-0.083-0.213-0.153-0.271
		c-0.043-0.038-0.167-0.112-0.518-0.204l-0.789-0.029V7.249h4.693v0.619L17.41,7.897c-0.198,0.05-0.34,0.097-0.42,0.143
		c-0.073,0.041-0.131,0.09-0.173,0.15c-0.028,0.039-0.068,0.122-0.096,0.287c-0.024,0.147-0.037,0.382-0.037,0.699v8.421
		c0,0.653-0.08,1.194-0.237,1.607c-0.161,0.425-0.434,0.786-0.813,1.075c-0.371,0.285-0.893,0.528-1.551,0.727l-0.137,0.042
		L13.604,20.148z"/>
</g>
<g>
	<path fill="#6C2754" d="M20.822,19.938c-0.566,0-1.225-0.096-1.957-0.283l-0.107-0.026V17.94h0.788l0.025,0.111
		c0.066,0.287,0.155,0.516,0.265,0.678c0.105,0.157,0.242,0.272,0.408,0.345c0.172,0.078,0.4,0.117,0.681,0.117
		c0.38,0,0.659-0.093,0.854-0.28c0.191-0.183,0.287-0.462,0.287-0.828c0-0.237-0.04-0.436-0.121-0.594
		c-0.082-0.157-0.221-0.311-0.41-0.454c-0.203-0.152-0.517-0.332-0.934-0.535c-0.421-0.206-0.761-0.411-1.01-0.611
		c-0.255-0.205-0.449-0.434-0.576-0.676c-0.128-0.246-0.193-0.52-0.193-0.81c0-0.417,0.101-0.786,0.301-1.095
		c0.201-0.312,0.498-0.554,0.881-0.722c0.376-0.163,0.812-0.247,1.293-0.247c0.273,0,0.542,0.015,0.804,0.042
		c0.262,0.03,0.593,0.093,0.983,0.192l0.109,0.025v1.669h-0.779l-0.029-0.105c-0.076-0.289-0.173-0.514-0.285-0.671
		c-0.107-0.147-0.233-0.252-0.375-0.31c-0.148-0.062-0.348-0.091-0.593-0.091c-0.208,0-0.396,0.036-0.56,0.112
		c-0.158,0.073-0.279,0.18-0.371,0.325c-0.092,0.146-0.137,0.322-0.137,0.53c0,0.222,0.039,0.411,0.117,0.561
		c0.08,0.152,0.209,0.295,0.384,0.429c0.184,0.141,0.462,0.301,0.824,0.478c0.462,0.227,0.825,0.441,1.08,0.638
		c0.263,0.201,0.472,0.438,0.622,0.7c0.15,0.267,0.229,0.579,0.229,0.931c0,0.385-0.064,0.719-0.189,0.988
		c-0.125,0.273-0.304,0.5-0.529,0.672c-0.221,0.17-0.489,0.296-0.797,0.37C21.508,19.899,21.179,19.938,20.822,19.938z"/>
</g>
</svg>
