<?xml version="1.0" encoding="utf-8"?>
<!-- Generator: Adobe Illustrator 15.0.0, SVG Export Plug-In . SVG Version: 6.00 Build 0)  -->
<!DOCTYPE svg PUBLIC "-//W3C//DTD SVG 1.1//EN" "http://www.w3.org/Graphics/SVG/1.1/DTD/svg11.dtd">
<svg version="1.1" id="图层_1" xmlns="http://www.w3.org/2000/svg" xmlns:xlink="http://www.w3.org/1999/xlink" x="0px" y="0px"
	 width="22px" height="20px" viewBox="0 0 22 20" enable-background="new 0 0 22 20" xml:space="preserve">
<g>
	<rect x="0.5" y="0.5" fill="#FCFCFC" width="21" height="19"/>
	<path fill="#3488B7" d="M21,1v18H1V1H21 M22,0H0v20h22V0L22,0z"/>
</g>
<rect x="0.927" y="0.92" fill="#A8DBEF" width="20.146" height="3"/>
<rect x="0.927" y="3.92" fill="#3488B7" width="20.146" height="1"/>
<g>
	<path fill="#0074BE" d="M2.486,17.42v-6.872h4.246v1.163h-3.09v1.523h2.875v1.157H3.643v1.87h3.199v1.158H2.486z"/>
	<path fill="#0074BE" d="M8.24,17.42l1.957-3.586l-1.773-3.286h1.352l1.148,2.208l1.125-2.208h1.34l-1.781,3.338l1.957,3.534H12.17
		l-1.27-2.377L9.627,17.42H8.24z"/>
	<path fill="#0074BE" d="M15.158,17.42v-6.872h4.246v1.163h-3.09v1.523h2.875v1.157h-2.875v1.87h3.199v1.158H15.158z"/>
</g>
</svg>
