<?xml version="1.0" encoding="utf-8"?>
<!-- Generator: Adobe Illustrator 15.0.0, SVG Export Plug-In . SVG Version: 6.00 Build 0)  -->
<!DOCTYPE svg PUBLIC "-//W3C//DTD SVG 1.1//EN" "http://www.w3.org/Graphics/SVG/1.1/DTD/svg11.dtd">
<svg version="1.1" id="图层_1" xmlns="http://www.w3.org/2000/svg" xmlns:xlink="http://www.w3.org/1999/xlink" x="0px" y="0px"
	 width="24px" height="24px" viewBox="0 0 24 24" enable-background="new 0 0 24 24" xml:space="preserve">
<path fill="#0092D7" d="M5.132,22.687c-1.323,0-3.07-0.935-3.558-1.54l-0.07-0.088C1.245,20.737,1,20.434,1,19.947
	c0-0.887,0.721-1.607,1.607-1.607c0.472,0,0.907,0.211,1.226,0.595c0.007,0.009,0.094,0.125,0.129,0.191
	c0.061,0.096,0.108,0.175,0.143,0.266c0.462,0.759,1.252,1.204,2.205,1.204c0.192,0,0.39-0.02,0.59-0.055
	c0.919-0.165,1.701-0.634,2.609-1.569c0.711-0.731,1.469-4.328,1.771-6.032H7.693l1.402-2.805h2.734l1.379-6.977
	c-1.467,0.061-2.68,0.497-3.61,1.302c-1.002,0.868-1.49,1.972-1.493,3.375c0.005,0.004,0.044,0.168,0.089,0.329
	c0.128,0.565-0.171,1.329-0.986,1.718c-0.305,0.173-0.645,0.27-0.965,0.27c-0.54,0-0.951-0.275-1.126-0.753L5.096,9.34l0.004-0.063
	C5.28,6.735,6.384,4.658,8.209,3.43c1.81-1.218,4.563-1.835,8.182-1.835H24l-1.311,4.119h-1.412l0.125-0.381
	c0.098-0.303,0.146-0.605,0.146-0.898c0-0.86-1.713-1.333-4.822-1.333H16.43l-1.395,7.034h5.826l-1.402,2.805h-4.994
	c-0.268,1.024-1.438,5.218-3.028,6.895C9.643,21.727,7.521,22.687,5.132,22.687z"/>
</svg>
