<?xml version="1.0" encoding="utf-8"?>
<!-- Generator: Adobe Illustrator 15.0.0, SVG Export Plug-In . SVG Version: 6.00 Build 0)  -->
<!DOCTYPE svg PUBLIC "-//W3C//DTD SVG 1.1//EN" "http://www.w3.org/Graphics/SVG/1.1/DTD/svg11.dtd">
<svg version="1.1" id="图层_1" xmlns="http://www.w3.org/2000/svg" xmlns:xlink="http://www.w3.org/1999/xlink" x="0px" y="0px"
	 width="24px" height="24px" viewBox="0 0 24 24" enable-background="new 0 0 24 24" xml:space="preserve">
<g>
	<g>
		<rect x="6.82" y="0.847" fill="#FFFFFF" width="14.624" height="18.299"/>
		<path fill="#999999" d="M20.943,1.347v17.299H7.32V1.347H20.943 M21.943,0.347H6.32v19.299h15.624V0.347L21.943,0.347z"/>
	</g>
	<g>
		<rect x="3.063" y="4.547" fill="#FFFFFF" width="14.625" height="18.3"/>
		<path fill="#777777" d="M17.188,5.047v17.3H3.563v-17.3H17.188 M18.188,4.047H2.563v19.3h15.625V4.047L18.188,4.047z"/>
	</g>
	<g>
		<path fill="#1B6CA8" d="M4.375,17.307v-8h1.834c0.368,0,0.671,0.086,0.903,0.257C7.344,9.735,7.527,10,7.656,10.351
			c0.126,0.344,0.19,0.708,0.19,1.079c0,0.349-0.057,0.685-0.169,0.992c-0.069,0.193-0.163,0.365-0.276,0.513l-0.072,0.094
			l0.088,0.076c0.167,0.145,0.306,0.34,0.413,0.576c0.157,0.35,0.236,0.768,0.236,1.238c0,0.375-0.047,0.732-0.142,1.055
			c-0.095,0.332-0.216,0.592-0.361,0.775c-0.146,0.186-0.331,0.326-0.548,0.42c-0.214,0.092-0.468,0.137-0.776,0.137H4.375z
			 M5.238,16.082h1c0.225,0,0.329-0.018,0.376-0.031c0.117-0.035,0.215-0.094,0.293-0.178c0.076-0.078,0.141-0.201,0.192-0.363
			c0.054-0.166,0.081-0.365,0.081-0.59c0-0.262-0.038-0.482-0.117-0.676c-0.073-0.18-0.171-0.301-0.297-0.369
			C6.63,13.799,6.425,13.76,6.157,13.76H5.238V16.082z M5.238,12.533h0.851c0.245,0,0.426-0.025,0.522-0.075
			c0.124-0.063,0.216-0.164,0.279-0.312c0.066-0.153,0.101-0.354,0.101-0.595c0-0.233-0.033-0.438-0.097-0.608
			c-0.059-0.158-0.138-0.263-0.243-0.317c-0.113-0.063-0.328-0.095-0.637-0.095H5.238V12.533z"/>
		<path fill="#52A6D1" d="M9.961,17.307c-0.447,0-0.812-0.244-1.086-0.725c-0.264-0.465-0.397-1.135-0.397-1.994
			c0-0.941,0.16-1.654,0.477-2.119c0.273-0.397,0.612-0.6,1.007-0.6c0.439,0,0.802,0.244,1.078,0.728
			c0.267,0.465,0.402,1.111,0.402,1.922c0,0.658-0.058,1.162-0.176,1.547c-0.12,0.387-0.298,0.693-0.529,0.908
			C10.5,17.195,10.24,17.307,9.961,17.307z M9.961,12.842c-0.207,0-0.375,0.133-0.517,0.404c-0.15,0.289-0.226,0.74-0.226,1.342
			s0.076,1.053,0.227,1.344c0.141,0.273,0.31,0.406,0.516,0.406c0.204,0,0.371-0.133,0.512-0.408
			c0.15-0.291,0.227-0.752,0.227-1.369c0-0.58-0.077-1.021-0.228-1.311C10.261,12.842,10.035,12.842,9.961,12.842z"/>
		<path fill="#52A6D1" d="M13.424,17.307c-0.445,0-0.811-0.244-1.085-0.725c-0.264-0.465-0.397-1.135-0.397-1.994
			c0-0.941,0.161-1.654,0.478-2.119c0.273-0.397,0.611-0.6,1.005-0.6c0.439,0,0.803,0.244,1.078,0.728
			c0.268,0.463,0.402,1.111,0.402,1.922c0,0.658-0.057,1.164-0.176,1.547c-0.119,0.387-0.299,0.693-0.529,0.908
			C13.965,17.195,13.703,17.307,13.424,17.307z M13.424,12.842c-0.205,0-0.375,0.133-0.516,0.404
			c-0.15,0.289-0.227,0.74-0.227,1.342s0.076,1.055,0.227,1.344c0.143,0.273,0.311,0.406,0.516,0.406s0.373-0.133,0.514-0.408
			c0.15-0.291,0.227-0.752,0.227-1.369c0-0.58-0.076-1.021-0.229-1.311C13.725,12.842,13.498,12.842,13.424,12.842z"/>
		<rect x="15.264" y="9.306" fill="#52A6D1" width="1.111" height="8"/>
	</g>
</g>
</svg>
