<?xml version="1.0" encoding="utf-8"?>
<!-- Generator: Adobe Illustrator 15.0.0, SVG Export Plug-In . SVG Version: 6.00 Build 0)  -->
<!DOCTYPE svg PUBLIC "-//W3C//DTD SVG 1.1//EN" "http://www.w3.org/Graphics/SVG/1.1/DTD/svg11.dtd">
<svg version="1.1" id="图层_1" xmlns="http://www.w3.org/2000/svg" xmlns:xlink="http://www.w3.org/1999/xlink" x="0px" y="0px"
	 width="24px" height="24px" viewBox="0 0 24 24" enable-background="new 0 0 24 24" xml:space="preserve">
<path fill="#429DC6" d="M12,2.169c5.341,0,9.687,4.346,9.687,9.687c0,5.342-4.346,9.688-9.687,9.688s-9.687-4.346-9.687-9.688
	C2.313,6.515,6.658,2.169,12,2.169 M12,0.356c-6.351,0-11.5,5.148-11.5,11.5s5.149,11.5,11.5,11.5c6.352,0,11.5-5.148,11.5-11.5
	S18.352,0.356,12,0.356L12,0.356z"/>
<circle fill="#6EBA3D" cx="12.008" cy="6.232" r="2.5"/>
<circle fill="#5792C5" cx="7.13" cy="15.328" r="2.5"/>
<circle fill="#D0455B" cx="16.811" cy="15.328" r="2.5"/>
<polygon fill="#F29100" points="12.003,13.366 9.744,13.366 10.873,11.41 12.003,9.454 13.133,11.41 14.262,13.366 "/>
</svg>
