<?xml version="1.0" encoding="utf-8"?>
<!-- Generator: Adobe Illustrator 15.0.0, SVG Export Plug-In . SVG Version: 6.00 Build 0)  -->
<!DOCTYPE svg PUBLIC "-//W3C//DTD SVG 1.1//EN" "http://www.w3.org/Graphics/SVG/1.1/DTD/svg11.dtd">
<svg version="1.1" id="图层_1" xmlns="http://www.w3.org/2000/svg" xmlns:xlink="http://www.w3.org/1999/xlink" x="0px" y="0px"
	 width="24px" height="24px" viewBox="0 0 24 24" enable-background="new 0 0 24 24" xml:space="preserve">
<g>
	<g>
		<rect x="6.819" y="0.876" fill="#FFFFFF" width="14.624" height="18.299"/>
		<path fill="#999999" d="M20.943,1.376v17.299H7.319V1.376H20.943 M21.943,0.376H6.319v19.299h15.624V0.376L21.943,0.376z"/>
	</g>
	<g>
		<rect x="3.063" y="4.577" fill="#FFFFFF" width="14.624" height="18.3"/>
		<path fill="#777777" d="M17.187,5.077v17.3H3.563v-17.3H17.187 M18.187,4.077H2.563v19.3h15.624V4.077L18.187,4.077z"/>
	</g>
	<g id="curved_x5F_arrow_2_">
		<path fill="#589F60" d="M10.625,17.709c-2.899,0-5.25-2.348-5.25-5.242c0-2.894,2.351-5.24,5.25-5.24
			c-2.072,0-3.751,1.676-3.751,3.743c0,2.067,1.679,3.743,3.751,3.743h0.75v-2.995l4,4.493l-4,4.016v-2.518H10.625z"/>
	</g>
</g>
</svg>
