<?xml version="1.0" encoding="utf-8"?>
<!-- Generator: Adobe Illustrator 15.0.0, SVG Export Plug-In . SVG Version: 6.00 Build 0)  -->
<!DOCTYPE svg PUBLIC "-//W3C//DTD SVG 1.1//EN" "http://www.w3.org/Graphics/SVG/1.1/DTD/svg11.dtd">
<svg version="1.1" id="图层_1" xmlns="http://www.w3.org/2000/svg" xmlns:xlink="http://www.w3.org/1999/xlink" x="0px" y="0px"
	 width="24px" height="24px" viewBox="0 0 24 24" enable-background="new 0 0 24 24" xml:space="preserve">
<g>
	<polygon fill="none" points="14.396,3.403 14.396,7.307 18.422,7.307 	"/>
	<path fill="#7BB755" d="M18.768,21.836H3.105V3.069h9.622v5.854h6.041v1.211h1.668V6.968l-5.693-5.514H1.436v22h19v-2.195h-1.668
		V21.836z M14.396,3.403l4.025,3.904h-4.025V3.403z"/>
</g>
<rect x="4.234" y="11.146" fill="#3E7937" width="18.331" height="9"/>
<g>
	<path fill="#F5F5F5" d="M10.499,18.607H9.056l-1.023-1.891c-0.036-0.07-0.074-0.193-0.114-0.373H7.903
		c-0.02,0.09-0.063,0.217-0.132,0.383l-1.027,1.881H5.29l1.829-2.852l-1.671-2.85h1.479l0.851,1.744
		c0.069,0.143,0.128,0.301,0.177,0.473H7.97c0.052-0.156,0.114-0.318,0.188-0.49l0.938-1.727h1.358l-1.723,2.826L10.499,18.607z"/>
	<path fill="#F5F5F5" d="M11.133,18.607v-6.023h1.186v6.023H11.133z"/>
	<path fill="#F5F5F5" d="M13.52,17.518c0.406,0.246,0.807,0.371,1.195,0.371c0.49,0,0.736-0.132,0.736-0.396
		c0-0.187-0.202-0.343-0.607-0.468c-0.505-0.157-0.854-0.332-1.042-0.524c-0.188-0.19-0.282-0.453-0.282-0.78
		c0-0.4,0.162-0.714,0.485-0.941c0.323-0.227,0.748-0.34,1.272-0.34c0.373,0,0.732,0.055,1.078,0.166v0.936
		c-0.315-0.188-0.664-0.281-1.045-0.281c-0.188,0-0.342,0.035-0.457,0.102c-0.113,0.068-0.172,0.156-0.172,0.269
		c0,0.187,0.172,0.339,0.516,0.453c0.367,0.121,0.645,0.233,0.83,0.334c0.185,0.101,0.326,0.231,0.423,0.397
		c0.097,0.164,0.146,0.354,0.146,0.57c0,0.42-0.168,0.744-0.504,0.977c-0.336,0.234-0.785,0.349-1.348,0.349
		c-0.441,0-0.85-0.069-1.227-0.209v-0.983H13.52z"/>
	<path fill="#F5F5F5" d="M21.553,14.538l-1.348,1.983l1.337,2.086h-1.373l-0.606-1.121c-0.084-0.155-0.142-0.276-0.174-0.364h-0.016
		c-0.044,0.116-0.1,0.235-0.165,0.354l-0.618,1.133h-1.365l1.377-2.023l-1.297-2.047h1.377l0.604,1.17
		c0.06,0.113,0.114,0.238,0.166,0.377h0.015c0.024-0.084,0.081-0.211,0.17-0.381l0.621-1.166L21.553,14.538L21.553,14.538z"/>
</g>
</svg>
