<?xml version="1.0" encoding="utf-8"?>
<!-- Generator: Adobe Illustrator 15.0.0, SVG Export Plug-In . SVG Version: 6.00 Build 0)  -->
<!DOCTYPE svg PUBLIC "-//W3C//DTD SVG 1.1//EN" "http://www.w3.org/Graphics/SVG/1.1/DTD/svg11.dtd">
<svg version="1.1" id="图层_1" xmlns="http://www.w3.org/2000/svg" xmlns:xlink="http://www.w3.org/1999/xlink" x="0px" y="0px"
	 width="24px" height="24px" viewBox="0 0 24 24" enable-background="new 0 0 24 24" xml:space="preserve">
<g>
	<path fill="#20679E" d="M0.398,17.5v-11h3.56c0.713,0,1.302,0.119,1.752,0.354C6.158,7.09,6.514,7.454,6.765,7.937
		C7.009,8.411,7.133,8.91,7.133,9.421c0,0.481-0.11,0.939-0.329,1.364c-0.134,0.263-0.315,0.5-0.536,0.706l-0.14,0.128l0.17,0.104
		c0.325,0.2,0.595,0.468,0.802,0.793c0.305,0.48,0.459,1.054,0.459,1.704c0,0.516-0.093,1.004-0.276,1.45
		c-0.185,0.454-0.421,0.812-0.701,1.065c-0.285,0.254-0.643,0.447-1.064,0.576C5.104,17.438,4.612,17.5,4.012,17.5H0.398z
		 M2.074,15.817h1.938c0.437,0,0.639-0.024,0.73-0.045c0.226-0.047,0.417-0.128,0.568-0.241c0.147-0.109,0.273-0.278,0.373-0.501
		c0.104-0.229,0.157-0.502,0.157-0.81c0-0.362-0.074-0.666-0.227-0.931c-0.142-0.247-0.331-0.412-0.577-0.509
		c-0.263-0.104-0.661-0.157-1.183-0.157H2.074V15.817z M2.074,10.938h1.65c0.476,0,0.826-0.035,1.014-0.104
		c0.241-0.087,0.419-0.227,0.542-0.427c0.129-0.212,0.195-0.488,0.195-0.82c0-0.319-0.063-0.601-0.188-0.834
		C5.172,8.534,5.018,8.39,4.815,8.315c-0.219-0.087-0.636-0.13-1.236-0.13H2.074V10.938z"/>
	<path fill="#529EC6" d="M11.235,17.5c-0.904,0-1.643-0.351-2.198-1.04c-0.535-0.668-0.805-1.628-0.805-2.86
		c0-1.352,0.324-2.374,0.965-3.039c0.553-0.571,1.239-0.861,2.038-0.861c0.889,0,1.624,0.352,2.183,1.044
		c0.54,0.668,0.814,1.597,0.814,2.758c0,0.942-0.116,1.668-0.356,2.218c-0.243,0.556-0.603,0.996-1.071,1.307
		C12.328,17.341,11.8,17.5,11.235,17.5z M11.235,11.097c-0.417,0-0.759,0.188-1.045,0.579C9.887,12.09,9.732,12.737,9.732,13.6
		s0.155,1.512,0.458,1.928c0.286,0.392,0.627,0.582,1.044,0.582c0.413,0,0.751-0.191,1.038-0.585
		c0.305-0.417,0.459-1.077,0.459-1.964c0-0.832-0.155-1.466-0.461-1.882C11.843,11.097,11.385,11.097,11.235,11.097z"/>
	<path fill="#529EC6" d="M17.955,17.5c-0.904,0-1.644-0.35-2.198-1.04c-0.534-0.667-0.805-1.628-0.805-2.86
		c0-1.352,0.324-2.375,0.965-3.04c0.553-0.57,1.238-0.86,2.038-0.86c0.889,0,1.624,0.352,2.183,1.044
		c0.541,0.667,0.814,1.595,0.814,2.758c0,0.945-0.116,1.671-0.356,2.218c-0.243,0.557-0.604,0.996-1.072,1.307
		C19.048,17.342,18.521,17.5,17.955,17.5z M17.955,11.097c-0.417,0-0.759,0.188-1.044,0.579c-0.305,0.412-0.459,1.061-0.459,1.924
		c0,0.862,0.154,1.514,0.459,1.928c0.286,0.392,0.627,0.583,1.044,0.583c0.413,0,0.752-0.192,1.038-0.585
		c0.305-0.419,0.459-1.079,0.459-1.965c0-0.832-0.154-1.466-0.461-1.882C18.563,11.097,18.105,11.097,17.955,11.097z"/>
	<rect x="21.602" y="6.5" fill="#529EC6" width="2" height="11"/>
</g>
</svg>
