<?xml version="1.0" encoding="utf-8"?>
<!-- Generator: Adobe Illustrator 15.0.0, SVG Export Plug-In . SVG Version: 6.00 Build 0)  -->
<!DOCTYPE svg PUBLIC "-//W3C//DTD SVG 1.1//EN" "http://www.w3.org/Graphics/SVG/1.1/DTD/svg11.dtd">
<svg version="1.1" id="图层_1" xmlns="http://www.w3.org/2000/svg" xmlns:xlink="http://www.w3.org/1999/xlink" x="0px" y="0px"
	 width="18px" height="22px" viewBox="0 0 18 22" enable-background="new 0 0 18 22" xml:space="preserve">
<path fill="#679999" d="M9,15.521c-4.969,0-9-1.357-9-3.029c0-0.915,0-1.913,0-3.028c0-0.161,0.06-0.317,0.141-0.471l0,0
	c0.045-0.097,0.105-0.192,0.177-0.286C1.321,10.01,4.811,10.979,9,10.979s7.679-0.968,8.682-2.271
	c0.072,0.094,0.133,0.189,0.178,0.286l0,0C17.939,9.147,18,9.304,18,9.464c0,0.876,0,1.806,0,3.028
	C18,14.164,13.969,15.521,9,15.521z"/>
<path fill="#6B8483" d="M9,22c-4.969,0-9-1.357-9-3.029c0-0.913,0-1.912,0-3.027c0-0.264,0.13-0.514,0.318-0.758
	C1.321,16.49,4.811,17.457,9,17.457s7.679-0.967,8.682-2.271C17.869,15.43,18,15.68,18,15.943c0,0.877,0,1.807,0,3.027
	C18,20.643,13.969,22,9,22z"/>
<path fill="#52B1B4" d="M9,9.086c-4.969,0-9-1.357-9-3.029c0-0.479,0-0.984,0-1.514c0-0.481,0-0.981,0-1.514C0,1.357,4.031,0,9,0
	c4.969,0,9,1.357,9,3.029c0,0.472,0,0.974,0,1.514c0,0.463,0,0.952,0,1.514C18,7.729,13.969,9.086,9,9.086z M9,1.514
	c-3.313,0-6,0.677-6,1.515c0,0.837,2.687,1.514,6,1.514s6-0.677,6-1.514C15,2.191,12.313,1.514,9,1.514z"/>
</svg>
