<?xml version="1.0" encoding="utf-8"?>
<!-- Generator: Adobe Illustrator 15.0.0, SVG Export Plug-In . SVG Version: 6.00 Build 0)  -->
<!DOCTYPE svg PUBLIC "-//W3C//DTD SVG 1.1//EN" "http://www.w3.org/Graphics/SVG/1.1/DTD/svg11.dtd">
<svg version="1.1" id="图层_1" xmlns="http://www.w3.org/2000/svg" xmlns:xlink="http://www.w3.org/1999/xlink" x="0px" y="0px"
	 width="24px" height="24px" viewBox="0 0 24 24" enable-background="new 0 0 24 24" xml:space="preserve">
<g>
	<g>
		<rect x="6.82" y="0.847" fill="#FFFFFF" width="14.624" height="18.299"/>
		<path fill="#989898" d="M20.943,1.347v17.299H7.32V1.347H20.943 M21.943,0.347H6.32v19.299h15.624V0.347L21.943,0.347z"/>
	</g>
	<g>
		<rect x="3.063" y="4.547" fill="#FFFFFF" width="14.625" height="18.301"/>
		<path fill="#767777" d="M17.188,5.047v17.301H3.563V5.047H17.188 M18.188,4.047H2.563v19.301h15.625V4.047L18.188,4.047z"/>
	</g>
	<g>
		<path fill="#6B8C39" d="M5.36,16.961v-5.236c-0.06,0.066-0.121,0.128-0.188,0.193c-0.216,0.209-0.416,0.371-0.595,0.48
			l-0.285,0.176V11.01l0.121-0.092c0.279-0.219,0.525-0.48,0.73-0.785C5.345,9.836,5.49,9.549,5.572,9.281l0.057-0.193h0.686v7.873
			H5.36z"/>
		<path fill="#4BA7A8" d="M7.651,16.797c-0.413,0-0.75-0.518-0.75-1.152c0-0.643,0.337-1.164,0.75-1.164s0.75,0.521,0.75,1.164
			C8.401,16.279,8.064,16.797,7.651,16.797z"/>
		<path fill="#70A55F" d="M9.121,16.961l-0.007-0.334c-0.005-0.256,0.021-0.506,0.075-0.742c0.08-0.354,0.211-0.709,0.387-1.053
			c0.17-0.326,0.413-0.705,0.727-1.127c0.454-0.611,0.764-1.102,0.92-1.452c0.139-0.311,0.209-0.597,0.209-0.855
			c0-0.256-0.051-0.459-0.162-0.635c-0.113-0.178-0.254-0.262-0.445-0.262c-0.203,0-0.352,0.09-0.467,0.279
			s-0.172,0.455-0.173,0.814l-0.001,0.378l-0.986-0.166l0.019-0.34c0.042-0.762,0.208-1.355,0.494-1.766
			c0.284-0.408,0.663-0.615,1.126-0.615c0.472,0,0.854,0.225,1.136,0.666c0.285,0.447,0.43,1.008,0.43,1.664
			c0,0.332-0.043,0.66-0.124,0.976c-0.08,0.313-0.208,0.629-0.39,0.967c-0.175,0.326-0.451,0.75-0.845,1.295
			c-0.255,0.355-0.437,0.613-0.54,0.777l1.904-0.004v1.531H9.121z"/>
		<path fill="#70A55F" d="M14.617,17.088c-0.432,0-0.799-0.221-1.092-0.65c-0.289-0.432-0.457-0.996-0.498-1.676l-0.021-0.332
			l0.932-0.205l0.039,0.318c0.053,0.424,0.135,0.723,0.248,0.891c0.109,0.162,0.234,0.24,0.396,0.24c0.195,0,0.35-0.105,0.486-0.328
			c0.135-0.225,0.197-0.486,0.197-0.822c0-0.313-0.057-0.561-0.178-0.756c-0.121-0.199-0.268-0.293-0.461-0.293
			c-0.082,0-0.193,0.031-0.322,0.088l-0.303,0.127l0.125-1.614l0.207,0.041c0.025,0.004,0.045,0.006,0.061,0.006
			c0.188,0,0.352-0.076,0.498-0.234c0.121-0.132,0.178-0.328,0.178-0.617c0-0.23-0.043-0.408-0.135-0.555
			c-0.094-0.148-0.211-0.219-0.365-0.219c-0.156,0-0.273,0.07-0.373,0.227c-0.104,0.162-0.172,0.418-0.205,0.768L14,11.844
			l-0.955-0.279l0.037-0.34c0.074-0.666,0.248-1.193,0.516-1.568c0.27-0.377,0.605-0.568,1-0.568c0.268,0,0.521,0.098,0.75,0.289
			c0.234,0.195,0.416,0.469,0.543,0.816c0.125,0.344,0.189,0.713,0.189,1.098c0,0.377-0.063,0.722-0.186,1.033
			c-0.049,0.123-0.109,0.239-0.178,0.344c0.123,0.123,0.23,0.283,0.32,0.473c0.17,0.371,0.256,0.826,0.256,1.361
			c0,0.719-0.162,1.338-0.48,1.838C15.496,16.836,15.096,17.088,14.617,17.088z"/>
	</g>
</g>
</svg>
