<?xml version="1.0" encoding="utf-8"?>
<!-- Generator: Adobe Illustrator 15.0.0, SVG Export Plug-In . SVG Version: 6.00 Build 0)  -->
<!DOCTYPE svg PUBLIC "-//W3C//DTD SVG 1.1//EN" "http://www.w3.org/Graphics/SVG/1.1/DTD/svg11.dtd">
<svg version="1.1" id="图层_1" xmlns="http://www.w3.org/2000/svg" xmlns:xlink="http://www.w3.org/1999/xlink" x="0px" y="0px"
	 width="24px" height="24px" viewBox="0 0 24 24" enable-background="new 0 0 24 24" xml:space="preserve">
<g>
	<path fill="#6B8C39" d="M2.134,15.943V9.072C2.016,9.157,1.891,9.241,1.759,9.325C1.328,9.6,0.927,9.813,0.569,9.956L0,10.185
		V8.133l0.24-0.121c0.559-0.285,1.051-0.631,1.463-1.029c0.403-0.388,0.69-0.765,0.854-1.118l0.115-0.253h1.371v10.332H2.134z"/>
	<path fill="#4BA7A8" d="M6.716,15.728c-0.827,0-1.5-0.679-1.5-1.512c0-0.843,0.673-1.528,1.5-1.528s1.5,0.686,1.5,1.528
		C8.216,15.049,7.543,15.728,6.716,15.728z"/>
	<path fill="#70A55F" d="M9.654,15.943l-0.012-0.438c-0.01-0.336,0.041-0.664,0.152-0.975c0.16-0.463,0.42-0.93,0.773-1.38
		c0.337-0.43,0.825-0.927,1.451-1.479c0.909-0.804,1.528-1.446,1.842-1.906c0.277-0.407,0.418-0.785,0.418-1.122
		s-0.104-0.603-0.326-0.834c-0.225-0.233-0.508-0.343-0.889-0.343c-0.408,0-0.705,0.117-0.935,0.367
		c-0.23,0.248-0.343,0.598-0.346,1.068l-0.002,0.499l-1.973-0.22l0.038-0.444c0.085-1.001,0.418-1.78,0.989-2.318
		c0.569-0.536,1.326-0.808,2.251-0.808c0.943,0,1.708,0.295,2.272,0.873c0.569,0.587,0.858,1.323,0.858,2.186
		c0,0.434-0.083,0.865-0.246,1.28c-0.16,0.41-0.415,0.827-0.78,1.271c-0.35,0.426-0.901,0.981-1.688,1.698
		c-0.512,0.464-0.874,0.805-1.081,1.02l3.806-0.007v2.011H9.654z"/>
	<path fill="#70A55F" d="M20.65,16.111c-0.865,0-1.6-0.288-2.184-0.855c-0.58-0.566-0.917-1.307-0.998-2.198l-0.041-0.434
		l1.862-0.27l0.077,0.415c0.104,0.557,0.271,0.949,0.496,1.17c0.22,0.214,0.471,0.314,0.793,0.314c0.393,0,0.701-0.138,0.973-0.43
		c0.271-0.294,0.396-0.638,0.396-1.081c0-0.409-0.117-0.733-0.357-0.991c-0.242-0.263-0.535-0.383-0.923-0.383
		c-0.163,0-0.387,0.038-0.645,0.113l-0.604,0.169l0.249-2.118l0.415,0.054c0.051,0.005,0.092,0.008,0.123,0.008
		c0.375,0,0.699-0.1,0.995-0.309c0.243-0.172,0.356-0.43,0.356-0.81c0-0.303-0.086-0.534-0.271-0.729
		c-0.188-0.196-0.42-0.287-0.73-0.287s-0.548,0.095-0.747,0.297c-0.207,0.212-0.344,0.551-0.407,1.01l-0.064,0.459l-1.909-0.365
		l0.075-0.446c0.147-0.874,0.494-1.567,1.029-2.059c0.539-0.494,1.211-0.745,2-0.745c0.537,0,1.041,0.128,1.501,0.379
		c0.468,0.256,0.833,0.616,1.086,1.069c0.25,0.452,0.377,0.938,0.377,1.443c0,0.493-0.124,0.948-0.372,1.354
		c-0.098,0.161-0.217,0.314-0.354,0.451c0.249,0.163,0.464,0.373,0.642,0.622C23.828,11.415,24,12.015,24,12.718
		c0,0.943-0.322,1.754-0.959,2.41C22.408,15.779,21.604,16.111,20.65,16.111z"/>
</g>
</svg>
