<?xml version="1.0" encoding="utf-8"?>
<!-- Generator: Adobe Illustrator 15.0.0, SVG Export Plug-In . SVG Version: 6.00 Build 0)  -->
<!DOCTYPE svg PUBLIC "-//W3C//DTD SVG 1.1//EN" "http://www.w3.org/Graphics/SVG/1.1/DTD/svg11.dtd">
<svg version="1.1" id="图层_1" xmlns="http://www.w3.org/2000/svg" xmlns:xlink="http://www.w3.org/1999/xlink" x="0px" y="0px"
	 width="24px" height="24px" viewBox="0 0 24 24" enable-background="new 0 0 24 24" xml:space="preserve">
<path fill="#DF7776" d="M9.202,23.181c-0.77,0-1.356-0.193-1.742-0.571c-0.378-0.37-0.57-0.78-0.57-1.221
	c0-1.37,1.357-4.887,4.146-10.754c0.167-0.326,0.192-0.481,0.192-0.547c0.003-0.015-0.06-0.062-0.302-0.062
	c-0.31,0-1.235,0.262-3.961,2.007L6.78,12.151l-1.915-0.947l0.443-0.31c3.354-2.34,6.385-3.526,9.011-3.526
	c0.736,0,1.247,0.078,1.567,0.238c0.378,0.192,0.578,0.507,0.578,0.913c0,0.307-0.188,1.095-1.813,4.412
	c-2.364,5.156-2.86,6.824-2.86,7.314c0,0.24,0.067,0.24,0.19,0.24c0.456,0,1.581-0.361,4.356-2.081l0.216-0.135l1.621,1.1
	l-0.428,0.262c-2.379,1.453-4.198,2.418-5.405,2.865C11.118,22.949,10.06,23.181,9.202,23.181z"/>
<ellipse fill="#CD4240" cx="17.072" cy="2.878" rx="2.5" ry="2.414"/>
</svg>
