<?xml version="1.0" encoding="utf-8"?>
<!-- Generator: Adobe Illustrator 15.0.0, SVG Export Plug-In . SVG Version: 6.00 Build 0)  -->
<!DOCTYPE svg PUBLIC "-//W3C//DTD SVG 1.1//EN" "http://www.w3.org/Graphics/SVG/1.1/DTD/svg11.dtd">
<svg version="1.1" id="图层_1" xmlns="http://www.w3.org/2000/svg" xmlns:xlink="http://www.w3.org/1999/xlink" x="0px" y="0px"
	 width="24px" height="24px" viewBox="0 0 24 24" enable-background="new 0 0 24 24" xml:space="preserve">
<g>
	<polygon fill="none" points="16.846,6.656 20.499,6.656 16.846,2.998 	"/>
	<path fill="#666767" d="M22.204,6.361l-5.066-5.063H5.266V6h1.412V2.707h8.757v5.359h5.357v3.274l1.412,1.127V6.361z M16.846,6.656
		V2.998l3.653,3.658H16.846z"/>
	<polygon fill="#666767" points="20.792,20.68 19.614,20.68 17.927,22.025 17.927,22.092 22.204,22.092 22.204,18.818 
		20.792,19.945 	"/>
	<rect x="2.996" y="19.084" fill="#454444" width="3.006" height="3.006"/>
	<rect x="7.488" y="19.082" fill="#454444" width="3.006" height="3.01"/>
	<rect x="11.988" y="19.082" fill="#454444" width="1.634" height="3.006"/>
	<rect x="2.996" y="14.096" fill="#454444" width="3.006" height="3.01"/>
	<rect x="7.497" y="14.098" fill="#454444" width="1.494" height="3.008"/>
	
		<rect x="1.691" y="8.312" transform="matrix(0.7069 0.7073 -0.7073 0.7069 8.0606 0.5425)" fill="#B81C25" width="3.369" height="3.37"/>
	<rect x="12.006" y="9.667" fill="#454444" width="1.598" height="2.425"/>
	<rect x="7.497" y="9.667" fill="#454444" width="2.996" height="2.425"/>
	<polygon fill="#00B9E7" points="22.015,14.855 20.654,13.76 15.534,9.628 15.534,13.684 10.967,13.684 10.967,17.602 
		15.534,17.602 15.534,21.654 20.654,17.527 22.015,16.434 22.994,15.645 	"/>
</g>
</svg>
