<?xml version="1.0" encoding="utf-8"?>
<!-- Generator: Adobe Illustrator 15.0.0, SVG Export Plug-In . SVG Version: 6.00 Build 0)  -->
<!DOCTYPE svg PUBLIC "-//W3C//DTD SVG 1.1//EN" "http://www.w3.org/Graphics/SVG/1.1/DTD/svg11.dtd">
<svg version="1.1" id="图层_1" xmlns="http://www.w3.org/2000/svg" xmlns:xlink="http://www.w3.org/1999/xlink" x="0px" y="0px"
	 width="24px" height="24px" viewBox="0 0 24 24" enable-background="new 0 0 24 24" xml:space="preserve">
<path fill="#F18C43" d="M12,3.643l9.607,7.984L12,19.611l-9.606-7.984L12,3.643 M12,1.341L0,11.627l12,10.287l12-10.287L12,1.341
	L12,1.341z"/>
<g>
	<path fill="#DD3C13" d="M12,16.154c-0.439,0-0.797-0.357-0.797-0.797V7.622c0-0.44,0.357-0.797,0.797-0.797
		c0.44,0,0.796,0.357,0.796,0.797v7.736C12.797,15.797,12.44,16.154,12,16.154z"/>
</g>
<g>
	<path fill="#DB610D" d="M8.813,13.879c-0.44,0-0.796-0.355-0.796-0.796V9.896c0-0.44,0.356-0.796,0.796-0.796
		c0.44,0,0.797,0.356,0.797,0.796v3.187C9.61,13.523,9.254,13.879,8.813,13.879z"/>
</g>
<g>
	<path fill="#DB610D" d="M15.188,13.879c-0.44,0-0.797-0.355-0.797-0.796V9.896c0-0.44,0.356-0.796,0.797-0.796
		c0.439,0,0.797,0.356,0.797,0.796v3.187C15.984,13.523,15.627,13.879,15.188,13.879z"/>
</g>
</svg>
