<?xml version="1.0" encoding="utf-8"?>
<!-- Generator: Adobe Illustrator 15.0.0, SVG Export Plug-In . SVG Version: 6.00 Build 0)  -->
<!DOCTYPE svg PUBLIC "-//W3C//DTD SVG 1.1//EN" "http://www.w3.org/Graphics/SVG/1.1/DTD/svg11.dtd">
<svg version="1.1" id="图层_1" xmlns="http://www.w3.org/2000/svg" xmlns:xlink="http://www.w3.org/1999/xlink" x="0px" y="0px"
	 width="24px" height="24px" viewBox="0 0 24 24" enable-background="new 0 0 24 24" xml:space="preserve">
<g>
	<g>
		<rect x="6.82" y="0.87" fill="#FFFFFF" width="14.624" height="18.3"/>
		<path fill="#999999" d="M20.943,1.37v17.3H7.32V1.37H20.943 M21.943,0.37H6.32v19.3h15.624V0.37L21.943,0.37z"/>
	</g>
	<g>
		<rect x="3.063" y="4.57" fill="#FFFFFF" width="14.625" height="18.299"/>
		<path fill="#777777" d="M17.188,5.07v17.299H3.563V5.07H17.188 M18.188,4.07H2.563v19.299h15.625V4.07L18.188,4.07z"/>
	</g>
	<g>
		<path fill="#933B67" d="M6.956,18.639c-0.53,0-0.984-0.133-1.349-0.398c-0.372-0.266-0.666-0.67-0.875-1.201
			c-0.203-0.518-0.312-1.105-0.322-1.75l-0.005-0.293l1.163-0.168l0.023,0.328c0.029,0.406,0.095,0.738,0.195,0.988
			c0.094,0.23,0.24,0.42,0.438,0.561c0.204,0.152,0.44,0.227,0.698,0.227c0.227,0,0.429-0.055,0.602-0.166
			c0.164-0.107,0.279-0.244,0.355-0.42C7.959,16.158,8,15.949,8,15.73c0-0.225-0.037-0.416-0.111-0.576
			c-0.072-0.156-0.199-0.291-0.377-0.402c-0.095-0.063-0.332-0.186-0.92-0.42c-0.525-0.211-0.886-0.408-1.107-0.604
			c-0.292-0.254-0.513-0.578-0.658-0.961c-0.141-0.375-0.213-0.796-0.213-1.254c0-0.5,0.087-0.975,0.257-1.41
			c0.177-0.454,0.44-0.802,0.782-1.037C5.985,8.837,6.358,8.72,6.761,8.72c0.44,0,0.836,0.12,1.179,0.361
			c0.35,0.247,0.621,0.611,0.807,1.084c0.18,0.456,0.276,0.977,0.289,1.545l0.008,0.301L7.865,12.16l-0.021-0.327
			c-0.033-0.491-0.135-0.86-0.307-1.094c-0.16-0.22-0.404-0.328-0.747-0.328c-0.355,0-0.608,0.099-0.753,0.293
			c-0.152,0.203-0.226,0.442-0.226,0.73c0,0.246,0.049,0.438,0.148,0.588c0.048,0.072,0.234,0.267,0.951,0.539
			c0.592,0.223,1.011,0.426,1.247,0.605c0.354,0.273,0.62,0.623,0.789,1.045c0.166,0.412,0.251,0.891,0.251,1.418
			c0,0.525-0.092,1.027-0.271,1.49c-0.187,0.479-0.456,0.855-0.804,1.121C7.778,18.506,7.385,18.639,6.956,18.639z"/>
		<path fill="#AF6994" d="M11.987,18.721c-0.283,0-0.51-0.082-0.676-0.242c-0.162-0.152-0.278-0.359-0.344-0.613
			c-0.063-0.234-0.092-0.684-0.092-1.375v-3.498H9.803v-1.341h1.072v-1.443l0.938-0.983l0.107-0.108v2.535h1.064v1.341H11.92v3.557
			c0,0.426,0.023,0.521,0.025,0.531c0.012,0.045,0.027,0.074,0.051,0.1c0.008,0.006,0.031,0.027,0.104,0.027
			c0.046,0,0.126-0.008,0.25-0.039l0.207-0.055l0.141,1.443l-0.16,0.059C12.336,18.686,12.151,18.721,11.987,18.721z"/>
		<path fill="#AF6994" d="M13.875,18.721v-6.984h0.982V12c0.031-0.049,0.061-0.091,0.094-0.126c0.164-0.188,0.35-0.282,0.553-0.282
			c0.27,0,0.539,0.138,0.803,0.41l0.098,0.099l-0.34,1.527L15.836,13.4c-0.125-0.121-0.248-0.184-0.365-0.184
			c-0.092,0-0.172,0.045-0.25,0.143c-0.09,0.113-0.154,0.277-0.193,0.488c-0.07,0.367-0.105,0.781-0.105,1.227v3.646H13.875z"/>
	</g>
</g>
</svg>
