<?xml version="1.0" encoding="utf-8"?>
<!-- Generator: Adobe Illustrator 15.0.0, SVG Export Plug-In . SVG Version: 6.00 Build 0)  -->
<!DOCTYPE svg PUBLIC "-//W3C//DTD SVG 1.1//EN" "http://www.w3.org/Graphics/SVG/1.1/DTD/svg11.dtd">
<svg version="1.1" id="图层_1" xmlns="http://www.w3.org/2000/svg" xmlns:xlink="http://www.w3.org/1999/xlink" x="0px" y="0px"
	 width="22px" height="19px" viewBox="0 0 22 19" enable-background="new 0 0 22 19" xml:space="preserve">
<g>
	<g>
		<rect x="0.5" y="0.5" fill="#9B9B9B" width="21" height="18"/>
		<path fill="#3488B7" d="M21,1v17H1V1H21 M22,0H0v19h22V0L22,0z"/>
	</g>
	<g>
		<rect x="1.003" y="0.993" fill="#AFD144" width="19.949" height="3.463"/>
	</g>
	<rect x="1.025" y="5.572" fill="#F0FBFF" width="19.948" height="12.328"/>
	<g>
		<line fill="#848484" x1="7.507" y1="5.572" x2="7.507" y2="17.997"/>
		<rect x="6.983" y="5.572" fill="#848484" width="1.048" height="12.425"/>
	</g>
	<g>
		<line fill="#848484" x1="14.492" y1="5.572" x2="14.492" y2="17.997"/>
		<rect x="13.968" y="5.572" fill="#848484" width="1.048" height="12.425"/>
	</g>
	<g>
		<line fill="#3488B7" x1="21.171" y1="5.015" x2="0.393" y2="5.015"/>
		<rect x="0.393" y="4.456" fill="#3488B7" width="20.778" height="1.116"/>
	</g>
	<g>
		<rect x="8.031" y="5.572" fill="#EFCB92" width="5.965" height="12.421"/>
	</g>
	<g>
		<line fill="#848484" x1="21.002" y1="9.49" x2="1.026" y2="9.49"/>
		<rect x="1.026" y="8.93" fill="#848484" width="19.976" height="1.118"/>
	</g>
	<g>
		<line fill="#848484" x1="21.002" y1="13.966" x2="1.026" y2="13.966"/>
		<rect x="1.026" y="13.406" fill="#848484" width="19.976" height="1.117"/>
	</g>
	<g>
		<line fill="#7B9638" x1="7.507" y1="1.013" x2="7.507" y2="4.447"/>
		<rect x="6.983" y="1.013" fill="#7B9638" width="1.048" height="3.434"/>
	</g>
	<g>
		<line fill="#7B9638" x1="14.492" y1="1.013" x2="14.492" y2="4.447"/>
		<rect x="13.968" y="1.013" fill="#7B9638" width="1.048" height="3.434"/>
	</g>
</g>
</svg>
