<?xml version="1.0" encoding="utf-8"?>
<!-- Generator: Adobe Illustrator 15.0.0, SVG Export Plug-In . SVG Version: 6.00 Build 0)  -->
<!DOCTYPE svg PUBLIC "-//W3C//DTD SVG 1.1//EN" "http://www.w3.org/Graphics/SVG/1.1/DTD/svg11.dtd">
<svg version="1.1" id="图层_1" xmlns="http://www.w3.org/2000/svg" xmlns:xlink="http://www.w3.org/1999/xlink" x="0px" y="0px"
	 width="24px" height="24px" viewBox="0 0 24 24" enable-background="new 0 0 24 24" xml:space="preserve">
<path fill="#5396D1" d="M11.5,2.313c5.341,0,9.688,4.347,9.688,9.687c0,5.343-4.347,9.688-9.688,9.688S1.813,17.343,1.813,12
	C1.813,6.66,6.158,2.313,11.5,2.313 M11.5,0.5C5.149,0.5,0,5.648,0,12c0,6.353,5.149,11.5,11.5,11.5C17.852,23.5,23,18.353,23,12
	C23,5.648,17.852,0.5,11.5,0.5L11.5,0.5z"/>
<g>
	<path fill="#EF7D4D" d="M3.625,12h8.25"/>
	<path fill="#EF7D4D" d="M3.625,12c0.344-0.417,0.688-0.712,1.031-1.01C5,11.009,11.844,11,11.844,11v2c0,0-6.844-0.01-7.188,0.01
		C4.313,12.711,3.969,12.416,3.625,12z"/>
</g>
<g>
	<path fill="#EF7D4D" d="M11.865,3.666v9.344"/>
	<path fill="#EF7D4D" d="M11.865,3.666c0.417,0.389,0.712,0.779,1.01,1.168c-0.02,0.389-0.01,8.141-0.01,8.141h-2
		c0,0,0.01-7.751-0.01-8.141C11.154,4.445,11.449,4.055,11.865,3.666z"/>
</g>
</svg>
