<?xml version="1.0" encoding="utf-8"?>
<!-- Generator: Adobe Illustrator 15.0.0, SVG Export Plug-In . SVG Version: 6.00 Build 0)  -->
<!DOCTYPE svg PUBLIC "-//W3C//DTD SVG 1.1//EN" "http://www.w3.org/Graphics/SVG/1.1/DTD/svg11.dtd">
<svg version="1.1" id="图层_1" xmlns="http://www.w3.org/2000/svg" xmlns:xlink="http://www.w3.org/1999/xlink" x="0px" y="0px"
	 width="22px" height="22px" viewBox="0 0 22 22" enable-background="new 0 0 22 22" xml:space="preserve">
<g>
	<polygon fill="#26A6D1" points="0,11.908 0,19.041 8.719,20.214 8.719,11.908 	"/>
	<polygon fill="#E2574C" points="8.719,1.704 0,2.823 0,10.088 8.719,10.088 	"/>
	<polygon fill="#3DB39E" points="22,10.088 22,0 10.552,1.468 10.552,10.088 	"/>
	<polygon fill="#F4B459" points="10.552,20.46 22,22 22,11.908 10.552,11.908 	"/>
</g>
<g>
	<g>
		<path d="M3.985,15.154c-0.698,0-1.284-0.123-1.739-0.365c-0.467-0.246-0.871-0.676-1.2-1.278
			c-0.323-0.593-0.486-1.349-0.486-2.248c0-1.206,0.291-2.157,0.866-2.826c0.589-0.685,1.422-1.033,2.476-1.033
			c0.824,0,1.49,0.203,1.98,0.602c0.48,0.391,0.839,0.988,1.066,1.775l0.107,0.371L4.72,10.751l-0.096-0.357
			c-0.062-0.228-0.111-0.317-0.129-0.346C4.423,9.935,4.342,9.854,4.246,9.797C4.159,9.745,4.06,9.72,3.945,9.72
			c-0.276,0-0.467,0.118-0.619,0.384c-0.092,0.156-0.199,0.479-0.199,1.146c0,0.876,0.142,1.206,0.227,1.325
			c0.128,0.181,0.291,0.261,0.527,0.261c0.303,0,0.427-0.111,0.493-0.195c0.138-0.175,0.243-0.449,0.311-0.815l0.081-0.429
			l2.312,0.807L7.01,12.524c-0.116,0.56-0.304,1.037-0.559,1.419c-0.265,0.397-0.6,0.702-0.995,0.906
			C5.065,15.052,4.57,15.154,3.985,15.154z"/>
		<path fill="#FFFFFF" d="M3.901,7.779c0.739,0,1.32,0.173,1.743,0.518c0.423,0.344,0.737,0.874,0.943,1.588l-1.601,0.411
			C4.93,10.09,4.871,9.938,4.81,9.844c-0.102-0.16-0.226-0.283-0.373-0.37c-0.146-0.086-0.31-0.129-0.492-0.129
			c-0.411,0-0.726,0.19-0.944,0.572c-0.166,0.283-0.249,0.727-0.249,1.332c0,0.751,0.099,1.266,0.296,1.543
			c0.198,0.278,0.475,0.418,0.833,0.418c0.347,0,0.609-0.113,0.787-0.338c0.177-0.225,0.306-0.551,0.386-0.979l1.589,0.555
			c-0.106,0.514-0.274,0.943-0.504,1.287c-0.23,0.346-0.515,0.605-0.855,0.781s-0.773,0.263-1.299,0.263
			c-0.638,0-1.159-0.106-1.563-0.321c-0.404-0.213-0.753-0.59-1.047-1.127c-0.293-0.539-0.44-1.229-0.44-2.068
			c0-1.119,0.259-1.98,0.775-2.581C2.226,8.081,2.957,7.779,3.901,7.779 M3.901,7.029c-1.168,0-2.097,0.392-2.761,1.164
			c-0.634,0.738-0.956,1.771-0.956,3.07c0,0.962,0.179,1.779,0.532,2.427c0.366,0.669,0.822,1.15,1.356,1.433
			c0.508,0.27,1.153,0.407,1.913,0.407c0.646,0,1.198-0.116,1.643-0.347c0.453-0.233,0.834-0.58,1.135-1.031
			c0.282-0.422,0.488-0.944,0.614-1.551l0.133-0.644L6.89,11.74l-1.589-0.555l-0.324-0.113l0.195-0.05l1.601-0.411l0.748-0.192
			L7.308,9.677C7.06,8.815,6.659,8.156,6.117,7.715C5.56,7.26,4.814,7.029,3.901,7.029L3.901,7.029z M3.881,12.46
			c-0.138,0-0.177-0.041-0.221-0.103c-0.007-0.01-0.158-0.231-0.158-1.108c0-0.636,0.102-0.878,0.146-0.953
			c0.107-0.188,0.191-0.201,0.297-0.201c0.061,0,0.092,0.014,0.112,0.025c0.042,0.025,0.082,0.066,0.12,0.125
			c0.003,0.005,0.037,0.065,0.085,0.246l0.172,0.638l-0.118,0.627c-0.075,0.4-0.181,0.58-0.237,0.651
			C4.069,12.42,4.038,12.46,3.881,12.46L3.881,12.46z"/>
	</g>
	<g>
		<path d="M10.397,15.154c-0.722,0-1.336-0.139-1.826-0.412c-0.498-0.279-0.903-0.721-1.205-1.311
			c-0.296-0.577-0.446-1.3-0.446-2.147c0-1.191,0.3-2.144,0.892-2.827c0.606-0.699,1.452-1.053,2.514-1.053
			c1.085,0,1.939,0.348,2.54,1.036c0.587,0.672,0.885,1.611,0.885,2.79c0,0.842-0.128,1.548-0.38,2.101
			c-0.26,0.57-0.643,1.022-1.139,1.342C11.735,14.992,11.118,15.154,10.397,15.154z M10.321,9.738c-0.245,0-0.429,0.095-0.579,0.297
			c-0.117,0.158-0.258,0.505-0.258,1.259c0,0.745,0.14,1.091,0.257,1.25c0.148,0.201,0.338,0.295,0.598,0.295
			c0.269,0,0.459-0.091,0.602-0.285c0.093-0.126,0.248-0.472,0.248-1.354c0-0.542-0.09-0.946-0.259-1.17
			C10.779,9.831,10.586,9.738,10.321,9.738z"/>
		<path fill="#FFFFFF" d="M10.326,7.779c0.977,0,1.729,0.303,2.258,0.907c0.528,0.605,0.792,1.453,0.792,2.543
			c0,0.791-0.115,1.439-0.346,1.945s-0.564,0.9-1.001,1.182s-0.979,0.423-1.632,0.423c-0.661,0-1.209-0.122-1.643-0.364
			C8.321,14.171,7.97,13.786,7.7,13.261c-0.27-0.527-0.404-1.186-0.404-1.977c0-1.105,0.267-1.965,0.8-2.582
			C8.63,8.087,9.374,7.779,10.326,7.779 M10.339,13.214c0.389,0,0.69-0.146,0.904-0.438c0.213-0.292,0.32-0.817,0.32-1.575
			c0-0.637-0.111-1.102-0.335-1.396c-0.222-0.293-0.524-0.44-0.907-0.44c-0.365,0-0.658,0.149-0.88,0.448
			c-0.222,0.298-0.332,0.792-0.332,1.482c0,0.683,0.11,1.174,0.33,1.473C9.659,13.064,9.959,13.214,10.339,13.214 M10.326,7.029
			c-1.175,0-2.116,0.397-2.796,1.181C6.876,8.966,6.546,10,6.546,11.284c0,0.907,0.164,1.688,0.487,2.318
			c0.337,0.657,0.792,1.15,1.354,1.466c0.548,0.307,1.223,0.461,2.01,0.461c0.794,0,1.479-0.183,2.038-0.542
			c0.558-0.359,0.987-0.864,1.277-1.502c0.274-0.602,0.413-1.36,0.413-2.256c0-1.271-0.329-2.293-0.977-3.036
			C12.474,7.421,11.524,7.029,10.326,7.029L10.326,7.029z M10.339,12.464c-0.16,0-0.228-0.05-0.296-0.143
			C10,12.263,9.859,12.016,9.859,11.294c0-0.731,0.141-0.977,0.184-1.034c0.081-0.11,0.151-0.146,0.278-0.146
			c0.168,0,0.24,0.053,0.31,0.143c0.055,0.073,0.183,0.311,0.183,0.944c0,0.849-0.146,1.093-0.177,1.134
			C10.587,12.401,10.526,12.464,10.339,12.464L10.339,12.464z"/>
	</g>
	<g>
		<polygon points="19.074,15.039 19.074,12.926 18.605,15.039 16.66,15.039 16.193,12.931 16.193,15.039 13.958,15.039 13.958,7.52 
			17.019,7.52 17.637,10.287 18.25,7.52 21.31,7.52 21.31,15.039 		"/>
		<path fill="#FFFFFF" d="M20.935,7.895v6.77h-1.485V9.501l-1.145,5.163h-1.344l-1.143-5.163v5.163h-1.485v-6.77h2.385l0.92,4.119
			l0.913-4.119H20.935 M21.685,7.145h-0.75h-2.384h-0.602l-0.131,0.588l-0.184,0.828l-0.185-0.83l-0.132-0.586h-0.601h-2.385h-0.75
			v0.75v6.77v0.75h0.75h1.485h0.75h0.393h1.344h0.602h0.543h1.485h0.75v-0.75v-6.77V7.145L21.685,7.145z"/>
	</g>
</g>
</svg>
