<?xml version="1.0" encoding="utf-8"?>
<!-- Generator: Adobe Illustrator 15.0.0, SVG Export Plug-In . SVG Version: 6.00 Build 0)  -->
<!DOCTYPE svg PUBLIC "-//W3C//DTD SVG 1.1//EN" "http://www.w3.org/Graphics/SVG/1.1/DTD/svg11.dtd">
<svg version="1.1" id="图层_1" xmlns="http://www.w3.org/2000/svg" xmlns:xlink="http://www.w3.org/1999/xlink" x="0px" y="0px"
	 width="24px" height="24px" viewBox="0 0 24 24" enable-background="new 0 0 24 24" xml:space="preserve">
<path fill="#429DC6" d="M12,2.354c5.341,0,9.688,4.346,9.688,9.687c0,5.342-4.347,9.688-9.688,9.688s-9.687-4.346-9.687-9.688
	C2.313,6.7,6.658,2.354,12,2.354 M12,0.541c-6.351,0-11.5,5.148-11.5,11.5C0.5,18.393,5.649,23.54,12,23.54
	c6.352,0,11.5-5.147,11.5-11.499C23.5,5.689,18.352,0.541,12,0.541L12,0.541z"/>
<path fill="#429DC6" d="M12,18.354c-3.48,0-6.312-2.832-6.312-6.313S8.52,5.728,12,5.728s6.313,2.832,6.313,6.313
	S15.48,18.354,12,18.354z M12,6.728c-2.929,0-5.312,2.383-5.312,5.313S9.071,17.354,12,17.354c2.93,0,5.313-2.384,5.313-5.313
	S14.93,6.728,12,6.728z"/>
<g>
	<circle fill="#6EBA3D" cx="12.008" cy="6.232" r="2.5"/>
	<path fill="#FFFFFF" d="M12.008,9.232c-1.654,0-3-1.346-3-3s1.346-3,3-3s3,1.346,3,3S13.662,9.232,12.008,9.232z M12.008,4.232
		c-1.103,0-2,0.897-2,2s0.897,2,2,2c1.103,0,2-0.897,2-2S13.11,4.232,12.008,4.232z"/>
</g>
<circle fill="#DD3C13" stroke="#FFFFFF" stroke-miterlimit="10" cx="12" cy="12.041" r="2.5"/>
<g>
	<circle fill="#5792C5" cx="7.13" cy="15.328" r="2.5"/>
	<path fill="#FFFFFF" d="M7.13,18.328c-1.654,0-3-1.346-3-3s1.346-3,3-3s3,1.346,3,3S8.784,18.328,7.13,18.328z M7.13,13.328
		c-1.103,0-2,0.897-2,2s0.897,2,2,2s2-0.897,2-2S8.233,13.328,7.13,13.328z"/>
</g>
<g>
	<circle fill="#D0455B" cx="16.811" cy="15.328" r="2.5"/>
	<path fill="#FFFFFF" d="M16.811,18.328c-1.654,0-3-1.346-3-3s1.346-3,3-3s3,1.346,3,3S18.465,18.328,16.811,18.328z M16.811,13.328
		c-1.103,0-2,0.897-2,2s0.897,2,2,2s2-0.897,2-2S17.913,13.328,16.811,13.328z"/>
</g>
</svg>
