<?xml version="1.0" encoding="utf-8"?>
<!-- Generator: Adobe Illustrator 15.0.0, SVG Export Plug-In . SVG Version: 6.00 Build 0)  -->
<!DOCTYPE svg PUBLIC "-//W3C//DTD SVG 1.1//EN" "http://www.w3.org/Graphics/SVG/1.1/DTD/svg11.dtd">
<svg version="1.1" id="图层_1" xmlns="http://www.w3.org/2000/svg" xmlns:xlink="http://www.w3.org/1999/xlink" x="0px" y="0px"
	 width="24px" height="24px" viewBox="0 0 24 24" enable-background="new 0 0 24 24" xml:space="preserve">
<g>
	<path fill="#3E7937" d="M3.231,12.209v3.021h-1.5V8.059h5.11v1.27h-3.61v1.61h3.16v1.271H3.231z"/>
	<path fill="#3E7937" d="M14.731,8.059v7.171h-1.399V9.239l-1.361,5.992h-1.47l-1.31-6.001l-0.02,6.001h-1.4V8.059h2.188
		l1.298,5.664l1.307-5.664H14.731z"/>
	<path fill="#3E7937" d="M21.922,8.059v4.664c0,0.92-0.264,1.605-0.79,2.059c-0.5,0.426-1.221,0.639-2.16,0.639
		c-0.42,0-0.8-0.053-1.14-0.16c-0.467-0.146-0.847-0.383-1.141-0.709c-0.373-0.418-0.56-0.998-0.56-1.736V8.059h1.529v4.654
		c0,0.473,0.12,0.83,0.36,1.072c0.24,0.244,0.547,0.365,0.92,0.365c0.5,0,0.867-0.117,1.101-0.35c0.232-0.232,0.35-0.572,0.35-1.02
		V8.059H21.922z"/>
</g>
<g>
	<path fill="#AFD144" d="M18.68,16.336c-1.315,2.439-3.894,4.102-6.854,4.102s-5.538-1.662-6.853-4.102H2.77
		c1.458,3.574,4.965,6.102,9.057,6.102c4.092,0,7.599-2.527,9.057-6.102H18.68z"/>
	<path fill="#AFD144" d="M4.973,7.143c1.315-2.439,3.893-4.101,6.853-4.101s5.538,1.662,6.854,4.101h2.203
		c-1.457-3.574-4.965-6.101-9.057-6.101S4.227,3.569,2.77,7.143H4.973z"/>
</g>
<g>
	<path fill="#B81C25" d="M3.231,12.209v3.021h-1.5V8.059h5.11v1.27h-3.61v1.61h3.16v1.271H3.231z"/>
	<path fill="#B81C25" d="M14.731,8.059v7.171h-1.399V9.239l-1.361,5.992h-1.47l-1.31-6.001l-0.02,6.001h-1.4V8.059h2.188
		l1.298,5.664l1.307-5.664H14.731z"/>
	<path fill="#B81C25" d="M21.922,8.059v4.664c0,0.92-0.264,1.605-0.79,2.059c-0.5,0.426-1.221,0.639-2.16,0.639
		c-0.42,0-0.8-0.053-1.14-0.16c-0.467-0.146-0.847-0.383-1.141-0.709c-0.373-0.418-0.56-0.998-0.56-1.736V8.059h1.529v4.654
		c0,0.473,0.12,0.83,0.36,1.072c0.24,0.244,0.547,0.365,0.92,0.365c0.5,0,0.867-0.117,1.101-0.35c0.232-0.232,0.35-0.572,0.35-1.02
		V8.059H21.922z"/>
</g>
<g>
	<path fill="#00B9E7" d="M18.68,16.336c-1.315,2.439-3.894,4.102-6.854,4.102s-5.538-1.662-6.853-4.102H2.77
		c1.458,3.574,4.965,6.102,9.057,6.102c4.092,0,7.599-2.527,9.057-6.102H18.68z"/>
	<path fill="#00B9E7" d="M4.973,7.143c1.315-2.439,3.893-4.101,6.853-4.101s5.538,1.662,6.854,4.101h2.203
		c-1.457-3.574-4.965-6.101-9.057-6.101S4.227,3.569,2.77,7.143H4.973z"/>
</g>
</svg>
