<?xml version="1.0" encoding="utf-8"?>
<!-- Generator: Adobe Illustrator 15.0.0, SVG Export Plug-In . SVG Version: 6.00 Build 0)  -->
<!DOCTYPE svg PUBLIC "-//W3C//DTD SVG 1.1//EN" "http://www.w3.org/Graphics/SVG/1.1/DTD/svg11.dtd">
<svg version="1.1" id="图层_1" xmlns="http://www.w3.org/2000/svg" xmlns:xlink="http://www.w3.org/1999/xlink" x="0px" y="0px"
	 width="24px" height="24px" viewBox="0 0 24 24" enable-background="new 0 0 24 24" xml:space="preserve">
<g>
	<path fill="#8E3A63" d="M6.77,17.229c-0.795,0-1.476-0.146-2.023-0.437c-0.558-0.294-0.999-0.738-1.313-1.322
		c-0.305-0.568-0.468-1.216-0.483-1.926l-0.007-0.321l1.745-0.186l0.035,0.362c0.044,0.446,0.142,0.811,0.292,1.086
		c0.141,0.254,0.361,0.463,0.658,0.618c0.307,0.165,0.66,0.248,1.048,0.248c0.34,0,0.643-0.062,0.902-0.184
		c0.245-0.117,0.419-0.269,0.533-0.462c0.12-0.206,0.182-0.434,0.182-0.677c0-0.245-0.057-0.457-0.167-0.633
		c-0.109-0.172-0.299-0.32-0.566-0.442c-0.142-0.068-0.496-0.203-1.38-0.462c-0.786-0.231-1.329-0.448-1.66-0.664
		c-0.437-0.279-0.769-0.635-0.986-1.057c-0.211-0.412-0.32-0.876-0.32-1.38c0-0.55,0.13-1.071,0.385-1.551
		c0.266-0.5,0.661-0.883,1.172-1.142c0.499-0.251,1.058-0.38,1.663-0.38c0.66,0,1.254,0.133,1.767,0.397
		C8.771,6.988,9.178,7.39,9.456,7.91c0.27,0.501,0.416,1.073,0.436,1.699l0.01,0.33l-1.767,0.163L8.103,9.743
		C8.055,9.202,7.9,8.797,7.645,8.54C7.403,8.298,7.036,8.18,6.523,8.18c-0.533,0-0.914,0.107-1.129,0.321
		c-0.228,0.224-0.34,0.487-0.34,0.804c0,0.271,0.073,0.481,0.224,0.646c0.071,0.079,0.35,0.293,1.425,0.594
		c0.887,0.244,1.517,0.468,1.871,0.664c0.532,0.301,0.93,0.687,1.183,1.15c0.25,0.452,0.376,0.979,0.376,1.561
		c0,0.577-0.136,1.128-0.405,1.64c-0.28,0.525-0.685,0.939-1.207,1.231C8.004,17.082,7.414,17.229,6.77,17.229z"/>
	<path fill="#A8668E" d="M14.316,17.319c-0.424,0-0.765-0.089-1.013-0.265c-0.243-0.17-0.417-0.398-0.517-0.677
		c-0.092-0.256-0.137-0.751-0.137-1.513v-3.847h-1.609V9.543h1.609V7.955l1.406-1.081l0.162-0.119v2.788h1.596v1.476h-1.596v3.912
		c0,0.469,0.033,0.573,0.037,0.584c0.018,0.05,0.041,0.083,0.076,0.109c0.011,0.008,0.047,0.03,0.156,0.03
		c0.068,0,0.188-0.009,0.374-0.043l0.31-0.061l0.213,1.589l-0.242,0.063C14.841,17.28,14.563,17.319,14.316,17.319z"/>
	<path fill="#A8668E" d="M17.148,17.319V9.638h1.475v0.289c0.046-0.054,0.093-0.1,0.141-0.139c0.246-0.206,0.526-0.31,0.831-0.31
		c0.403,0,0.808,0.15,1.202,0.45l0.146,0.108l-0.51,1.679l-0.342-0.248c-0.189-0.134-0.373-0.203-0.547-0.203
		c-0.139,0-0.259,0.051-0.377,0.159c-0.133,0.122-0.23,0.303-0.291,0.536c-0.104,0.404-0.156,0.859-0.156,1.35v4.01H17.148z"/>
</g>
</svg>
