<?xml version="1.0" encoding="utf-8"?>
<!-- Generator: Adobe Illustrator 16.0.0, SVG Export Plug-In . SVG Version: 6.00 Build 0)  -->
<!DOCTYPE svg PUBLIC "-//W3C//DTD SVG 1.1//EN" "http://www.w3.org/Graphics/SVG/1.1/DTD/svg11.dtd">
<svg version="1.1" id="图层_1" xmlns="http://www.w3.org/2000/svg" xmlns:xlink="http://www.w3.org/1999/xlink" x="0px" y="0px"
	 width="24px" height="24px" viewBox="0 0 24 24" enable-background="new 0 0 24 24" xml:space="preserve">
<path fill="#CCCCCC" d="M11.885,15.508c-1.934,0-3.507-1.572-3.507-3.507c0-1.934,1.573-3.507,3.507-3.507
	c1.934,0,3.508,1.574,3.508,3.507C15.393,13.936,13.818,15.508,11.885,15.508z"/>
<g>
	<path fill="#E2574C" d="M10.719,2.384V0.393C6.988,0.718,3.763,2.812,1.9,5.847h2.433C5.883,3.945,8.15,2.653,10.719,2.384z"/>
	<path fill="#E2574C" d="M12.719,2.384c2.569,0.27,4.836,1.562,6.385,3.463h2.434c-1.862-3.035-5.088-5.129-8.818-5.455V2.384z"/>
</g>
<g>
	<path fill="#E2574C" d="M10.719,2.384V0.393C6.988,0.718,3.763,2.812,1.9,5.847h2.433C5.883,3.945,8.15,2.653,10.719,2.384z"/>
	<path fill="#E2574C" d="M12.719,2.384c2.569,0.27,4.836,1.562,6.385,3.463h2.434c-1.862-3.035-5.088-5.129-8.818-5.455V2.384z"/>
</g>
<g>
	<path fill="#E2574C" d="M10.719,21.009V23c-3.73-0.325-6.956-2.42-8.818-5.455h2.433C5.883,19.447,8.15,20.739,10.719,21.009z"/>
	<path fill="#E2574C" d="M12.719,21.009c2.569-0.271,4.836-1.562,6.385-3.464h2.434c-1.862,3.035-5.088,5.129-8.818,5.455V21.009z"
		/>
</g>
<g>
	<path fill="#26A6D1" d="M10.719,5.082c-3.64,0.449-6.456,3.259-6.456,6.656c0,3.397,2.815,6.205,6.456,6.654V5.082z"/>
	<path fill="#26A6D1" d="M12.719,5.077v13.319c3.655-0.436,6.49-3.25,6.49-6.659C19.209,8.331,16.374,5.513,12.719,5.077z"/>
</g>
<g>
	<path fill="#FFFFFF" d="M1.08,16.32V7.151h4.281c0.971,0,1.762,0.309,2.354,0.918c0.58,0.6,0.877,1.398,0.877,2.377
		c0,0.703-0.199,1.358-0.588,1.942c-0.41,0.614-1.211,1.342-2.703,1.342H4.58v2.59H1.08z"/>
	<path fill="#FFFFFF" d="M11.451,16.512c-1.459,0-2.557-0.4-3.266-1.193c-0.533-0.59-0.805-1.334-0.805-2.207v-1h0.773
		c-0.361-0.412-0.664-1.03-0.664-1.944c0-0.8,0.252-1.492,0.75-2.058c0.668-0.762,1.682-1.148,3.01-1.148
		c1.27,0,2.264,0.388,2.961,1.153c0.557,0.613,0.84,1.339,0.84,2.156v1h-0.455c0.352,0.381,0.686,0.983,0.686,1.894
		c0,1.02-0.375,1.869-1.082,2.457C13.49,16.213,12.564,16.512,11.451,16.512z"/>
	<path fill="#FFFFFF" d="M18.551,16.512c-0.564,0-1.121-0.098-1.65-0.289c-0.803-0.289-1.451-0.77-1.922-1.426
		c-0.582-0.799-0.877-1.83-0.877-3.061c0-1.235,0.291-2.266,0.869-3.063c0.471-0.655,1.117-1.135,1.922-1.424
		c0.525-0.19,1.084-0.288,1.658-0.288c0.568,0,1.123,0.098,1.652,0.29c0.799,0.287,1.447,0.767,1.92,1.426
		C22.705,9.475,23,10.506,23,11.736c0,1.235-0.291,2.266-0.869,3.063c-0.469,0.654-1.117,1.135-1.922,1.424
		C19.68,16.414,19.121,16.512,18.551,16.512z"/>
	<path d="M3.58,12.73v2.59h-1.5V8.151h3.281c0.693,0,1.238,0.204,1.635,0.613s0.596,0.969,0.596,1.682
		c0,0.506-0.141,0.967-0.42,1.387c-0.4,0.598-1.023,0.897-1.871,0.897H3.58z M3.58,11.491h1.391c0.48,0,0.807-0.146,0.98-0.438
		c0.094-0.159,0.141-0.385,0.141-0.677c0-0.352-0.104-0.604-0.311-0.756s-0.543-0.229-1.01-0.229H3.58V11.491z"/>
	<path d="M8.381,13.111H9.82c0,0.293,0.088,0.537,0.26,0.729c0.262,0.287,0.682,0.432,1.262,0.432c0.426,0,0.766-0.061,1.02-0.18
		c0.32-0.154,0.48-0.404,0.48-0.75c0-0.26-0.121-0.455-0.361-0.588c-0.16-0.088-0.473-0.188-0.939-0.301l-0.77-0.18
		c-0.768-0.18-1.291-0.365-1.57-0.559c-0.475-0.326-0.711-0.841-0.711-1.547c0-0.553,0.168-1.018,0.5-1.397
		c0.475-0.539,1.227-0.809,2.26-0.809c0.98,0,1.721,0.275,2.221,0.826c0.387,0.425,0.58,0.919,0.58,1.483h-1.439
		c-0.033-0.283-0.117-0.502-0.25-0.654C12.121,9.339,11.715,9.2,11.141,9.2c-0.34,0-0.619,0.061-0.84,0.18
		c-0.273,0.154-0.41,0.381-0.41,0.68c0,0.246,0.086,0.433,0.26,0.559c0.1,0.074,0.268,0.137,0.5,0.189l1.75,0.43
		c0.594,0.146,1.031,0.336,1.311,0.569c0.379,0.313,0.57,0.766,0.57,1.358c0,0.727-0.24,1.289-0.721,1.688
		c-0.527,0.439-1.23,0.66-2.109,0.66c-1.166,0-2.008-0.287-2.52-0.861C8.564,14.244,8.381,13.73,8.381,13.111z"/>
	<path d="M15.102,11.736c0-1.026,0.227-1.85,0.68-2.477c0.354-0.492,0.836-0.849,1.449-1.068c0.42-0.152,0.859-0.229,1.32-0.229
		c0.453,0,0.891,0.077,1.311,0.229c0.613,0.22,1.096,0.576,1.449,1.068C21.771,9.892,22,10.718,22,11.736
		c0,1.026-0.227,1.85-0.68,2.477c-0.354,0.492-0.836,0.848-1.449,1.068c-0.42,0.152-0.861,0.23-1.32,0.23
		c-0.453,0-0.891-0.078-1.311-0.23c-0.613-0.221-1.096-0.576-1.449-1.068C15.33,13.58,15.102,12.754,15.102,11.736z M16.602,11.736
		c0,0.905,0.223,1.573,0.67,2.006c0.34,0.332,0.766,0.498,1.279,0.498c0.506,0,0.934-0.166,1.279-0.498
		c0.447-0.434,0.67-1.102,0.67-2.006s-0.223-1.573-0.67-2.006c-0.34-0.332-0.766-0.498-1.279-0.498
		c-0.508,0-0.934,0.166-1.279,0.498C16.824,10.163,16.602,10.831,16.602,11.736z"/>
	<g>
		<path d="M3.58,12.73v2.59h-1.5V8.151h3.281c0.693,0,1.238,0.204,1.635,0.613s0.596,0.969,0.596,1.682
			c0,0.506-0.141,0.967-0.42,1.387c-0.4,0.598-1.023,0.897-1.871,0.897H3.58z M3.58,11.491h1.391c0.48,0,0.807-0.146,0.98-0.438
			c0.094-0.159,0.141-0.385,0.141-0.677c0-0.352-0.104-0.604-0.311-0.756s-0.543-0.229-1.01-0.229H3.58V11.491z"/>
		<path d="M8.381,13.111H9.82c0,0.293,0.088,0.537,0.26,0.729c0.262,0.287,0.682,0.432,1.262,0.432c0.426,0,0.766-0.061,1.02-0.18
			c0.32-0.154,0.48-0.404,0.48-0.75c0-0.26-0.121-0.455-0.361-0.588c-0.16-0.088-0.473-0.188-0.939-0.301l-0.77-0.18
			c-0.768-0.18-1.291-0.365-1.57-0.559c-0.475-0.326-0.711-0.841-0.711-1.547c0-0.553,0.168-1.018,0.5-1.397
			c0.475-0.539,1.227-0.809,2.26-0.809c0.98,0,1.721,0.275,2.221,0.826c0.387,0.425,0.58,0.919,0.58,1.483h-1.439
			c-0.033-0.283-0.117-0.502-0.25-0.654C12.121,9.339,11.715,9.2,11.141,9.2c-0.34,0-0.619,0.061-0.84,0.18
			c-0.273,0.154-0.41,0.381-0.41,0.68c0,0.246,0.086,0.433,0.26,0.559c0.1,0.074,0.268,0.137,0.5,0.189l1.75,0.43
			c0.594,0.146,1.031,0.336,1.311,0.569c0.379,0.313,0.57,0.766,0.57,1.358c0,0.727-0.24,1.289-0.721,1.688
			c-0.527,0.439-1.23,0.66-2.109,0.66c-1.166,0-2.008-0.287-2.52-0.861C8.564,14.244,8.381,13.73,8.381,13.111z"/>
		<path d="M15.102,11.736c0-1.026,0.227-1.85,0.68-2.477c0.354-0.492,0.836-0.849,1.449-1.068c0.42-0.152,0.859-0.229,1.32-0.229
			c0.453,0,0.891,0.077,1.311,0.229c0.613,0.22,1.096,0.576,1.449,1.068C21.771,9.892,22,10.718,22,11.736
			c0,1.026-0.227,1.85-0.68,2.477c-0.354,0.492-0.836,0.848-1.449,1.068c-0.42,0.152-0.861,0.23-1.32,0.23
			c-0.453,0-0.891-0.078-1.311-0.23c-0.613-0.221-1.096-0.576-1.449-1.068C15.33,13.58,15.102,12.754,15.102,11.736z M16.602,11.736
			c0,0.905,0.223,1.573,0.67,2.006c0.34,0.332,0.766,0.498,1.279,0.498c0.506,0,0.934-0.166,1.279-0.498
			c0.447-0.434,0.67-1.102,0.67-2.006s-0.223-1.573-0.67-2.006c-0.34-0.332-0.766-0.498-1.279-0.498
			c-0.508,0-0.934,0.166-1.279,0.498C16.824,10.163,16.602,10.831,16.602,11.736z"/>
	</g>
</g>
</svg>
